<?xml version="1.0" encoding="UTF-8"?>
<svg id="Layer_1" data-name="Layer 1" xmlns="http://www.w3.org/2000/svg" viewBox="0 0 1254 1254">
  <defs>
    <style>
      .cls-1 {
        fill: #f5f3f1;
      }

      .cls-2 {
        fill: #151515;
      }
    </style>
  </defs>
  <path class="cls-2" d="M0,1254V0h1254v1254H0ZM581.62,616.35c4.68-6.5,10.43-10.33,16.47-14.23,16.52-10.67,36.71-9.96,53.05.73,9.23,6.04,15.95,13.58,22.46,22.81l129.09,182.59,80.14,113.16c10.56,14.91,26.94,25.87,44.03,31.9,16.8,5.93,34.76,2.68,49.12-7.15,12.89-8.82,21.19-23.5,23.22-40.19,2.04-16.72-3.27-31.34-11.45-45.81l-58.45-103.47-122.19-220.82-135.36-243.3c-4.76-8.55-9.6-15.51-16.8-21.45-16.27-13.44-38.24-13.99-54.95-1.04-8.16,6.32-13.68,14.06-18.83,23.3l-64.98,116.72c-2.66.75-3.33,2.47-2.38,4.84l-37.43,66.41-71.1,126.73-25.06,44.01-10,17.98-115.11,201.62c-10.31,23.5-7.15,49.46,10.16,68.11,17.52,17.24,43.26,20.54,65.7,9.9l17.32-10.68c9.11-5.62,15.11-14.53,21.45-23.56l139.74-198.97,72.15-100.17ZM276.73,700.47c-7.57-30.21-11.33-59.74-10.29-89.99.6-17.69,1.62-33.95,4.92-51.41,12.1-64.13,40.43-124.71,84.89-172.7,27.21-29.36,57.98-53.86,93.05-73.18-1.97-6.3-6.13-10.95-9.74-15.65-1.38-1.8-1.5-3.73-3.52-4.35-2.52-.78-3.63-.13-5.92,1.06-27.19,14.17-51.57,32.13-74.41,52.32-68.99,61-112.86,144.03-123.65,235.79-5.01,42.54-2.67,85.66,8.08,127.43,2.78-2.84,3.53-3.82,6.51-4.54l8.36-2.02c6.41-7.9,14.16-.03,21.73-2.76ZM985.85,700.65c5.85-.76,10.96.22,13.1,6.9,3.98-1.71,7.34-.9,11.46.03,3.57-6.72,4.13-13.85,5.38-21.14,3.73-21.68,5.95-42.67,5.91-64.92-.09-47.61-9.62-94.21-27.76-138.48-31.9-77.86-91.89-143.03-164.64-184.67l-8.23,10.46c-2.52,3.2-5.36,5.58-8.09,9.41l30.71,21.03c13.43,9.19,24.59,19.51,36.31,30.86,30.58,29.62,55.46,63.73,73.22,102.71,33.91,74.43,41.36,149.34,20.73,229.35l11.9-1.54ZM713.95,887.3l11.16,6.66,43.63,29.72,9,.31c3.91,1.49,5.32-1.49,7.65-2.4,10.04-3.95,18.46-9.96,22.04-20.76l-17.99-19.31-29.32-32.59c-1.79-1.99-3.01-3.14-4.76-5.31l-15.26-18.82-71.26-88.45c-16.42-20.38-38.7-31.68-63.2-20.68-9.79,4.4-17.1,10.87-23.92,19.18l-86.91,105.86c-19.26,23.45-39.01,45.2-60.47,66.99-.08,5.76.76,12.74,5.27,16.74,1.88,1.67,5.14,2.74,6.66,5.41l18.58,2.18c8.51-.9,14.84-7.12,21.5-11.47l35.86-23.41,35.7-23.13c20.51-13.29,53.55-25.32,77.42-21.24,32.15,3.23,52.83,19.11,78.65,34.52Z"/>
  <g>
    <path class="cls-1" d="M581.62,616.35l-72.15,100.17-139.74,198.97c-6.34,9.03-12.34,17.94-21.45,23.56l-17.32,10.68c-22.44,10.64-48.18,7.34-65.7-9.9-17.31-18.65-20.48-44.62-10.16-68.11l115.11-201.62,10-17.98,25.06-44.01,71.1-126.73,37.43-66.41c-.95-2.37-.28-4.09,2.38-4.84l64.98-116.72c5.15-9.25,10.67-16.98,18.83-23.3,16.72-12.95,38.68-12.4,54.95,1.04,7.2,5.95,12.05,12.9,16.8,21.45l135.36,243.3,122.19,220.82,58.45,103.47c8.18,14.48,13.48,29.1,11.45,45.81-2.03,16.69-10.34,31.36-23.22,40.19-14.36,9.83-32.33,13.08-49.12,7.15-17.09-6.03-33.47-16.99-44.03-31.9l-80.14-113.16-129.09-182.59c-6.52-9.22-13.24-16.77-22.46-22.81-16.34-10.69-36.53-11.4-53.05-.73-6.03,3.9-11.79,7.73-16.47,14.23Z"/>
    <path class="cls-1" d="M713.95,887.3c-25.82-15.41-46.5-31.29-78.65-34.52-23.87-4.08-56.91,7.96-77.42,21.24l-35.7,23.13-35.86,23.41c-6.66,4.35-12.99,10.57-21.5,11.47l-18.58-2.18c-1.52-2.67-4.78-3.74-6.66-5.41-4.51-4-5.35-10.98-5.27-16.74,21.47-21.78,41.22-43.54,60.47-66.99l86.91-105.86c6.82-8.31,14.13-14.79,23.92-19.18,24.49-11,46.78.3,63.2,20.68l71.26,88.45,15.26,18.82c1.76,2.17,2.97,3.32,4.76,5.31l29.32,32.59,17.99,19.31c-3.58,10.8-12,16.81-22.04,20.76-2.33.92-3.74,3.89-7.65,2.4l-9-.31-43.63-29.72-11.16-6.66Z"/>
    <g>
      <path class="cls-1" d="M276.73,700.47c-7.58,2.73-15.32-5.14-21.73,2.76l-8.36,2.02c-2.99.72-3.73,1.7-6.51,4.54-10.75-41.78-13.08-84.89-8.08-127.43,10.8-91.76,54.66-174.79,123.65-235.79,22.84-20.2,47.23-38.15,74.41-52.32,2.29-1.19,3.4-1.83,5.92-1.06,2.03.62,2.14,2.55,3.52,4.35,3.61,4.7,7.77,9.35,9.74,15.65-35.07,19.33-65.84,43.83-93.05,73.18-44.47,47.98-72.79,108.57-84.89,172.7-3.3,17.46-4.32,33.73-4.92,51.41-1.03,30.26,2.73,59.79,10.29,89.99Z"/>
      <path class="cls-1" d="M985.85,700.65l-11.9,1.54c20.64-80,13.19-154.91-20.73-229.35-17.76-38.98-42.64-73.09-73.22-102.71-11.72-11.35-22.88-21.66-36.31-30.86l-30.71-21.03c2.73-3.83,5.57-6.22,8.09-9.41l8.23-10.46c72.75,41.65,132.73,106.81,164.64,184.67,18.14,44.27,27.67,90.87,27.76,138.48.04,22.25-2.18,43.24-5.91,64.92-1.25,7.29-1.82,14.42-5.38,21.14-4.12-.93-7.48-1.74-11.46-.03-2.14-6.68-7.26-7.65-13.1-6.9Z"/>
    </g>
  </g>
</svg>