<?xml version="1.0" encoding="UTF-8"?>
<svg id="Layer_1" data-name="Layer 1" xmlns="http://www.w3.org/2000/svg" viewBox="0 0 792.18 695.58">
  <defs>
    <style>
      .cls-1 {
        fill: #fff;
      }
    </style>
  </defs>
  <path class="cls-1" d="M352.09,355.65l-72.15,100.17-139.74,198.97c-6.34,9.03-12.34,17.94-21.45,23.56l-17.32,10.68c-22.44,10.64-48.18,7.34-65.7-9.9-17.31-18.65-20.48-44.62-10.16-68.11l115.11-201.62,10-17.98,25.06-44.01,71.1-126.73,37.43-66.41c-.95-2.37-.28-4.09,2.38-4.84l64.98-116.72c5.15-9.25,10.67-16.98,18.83-23.3,16.72-12.95,38.68-12.4,54.95,1.04,7.2,5.95,12.05,12.9,16.8,21.45l135.36,243.3,122.19,220.82,58.45,103.47c8.18,14.48,13.48,29.1,11.45,45.81-2.03,16.69-10.34,31.36-23.22,40.19-14.36,9.83-32.33,13.08-49.12,7.15-17.09-6.03-33.47-16.99-44.03-31.9l-80.14-113.16-129.09-182.59c-6.52-9.22-13.24-16.77-22.46-22.81-16.34-10.69-36.53-11.4-53.05-.73-6.03,3.9-11.79,7.73-16.47,14.23Z"/>
  <path class="cls-1" d="M484.42,626.59c-25.82-15.41-46.5-31.29-78.65-34.52-23.87-4.08-56.91,7.96-77.42,21.24l-35.7,23.13-35.86,23.41c-6.66,4.35-12.99,10.57-21.5,11.47l-18.58-2.18c-1.52-2.67-4.78-3.74-6.66-5.41-4.51-4-5.35-10.98-5.27-16.74,21.47-21.78,41.22-43.54,60.47-66.99l86.91-105.86c6.82-8.31,14.13-14.79,23.92-19.18,24.49-11,46.78.3,63.2,20.68l71.26,88.45,15.26,18.82c1.76,2.17,2.97,3.32,4.76,5.31l29.32,32.59,17.99,19.31c-3.58,10.8-12,16.81-22.04,20.76-2.33.92-3.74,3.89-7.65,2.4l-9-.31-43.63-29.72-11.16-6.66Z"/>
  <g>
    <path class="cls-1" d="M47.2,439.76c-7.58,2.73-15.32-5.14-21.73,2.76l-8.36,2.02c-2.99.72-3.73,1.7-6.51,4.54C-.15,407.3-2.49,364.19,2.52,321.65c10.8-91.76,54.66-174.79,123.65-235.79,22.84-20.2,47.23-38.15,74.41-52.32,2.29-1.19,3.4-1.83,5.92-1.06,2.03.62,2.14,2.55,3.52,4.35,3.61,4.7,7.77,9.35,9.74,15.65-35.07,19.33-65.84,43.83-93.05,73.18-44.47,47.98-72.79,108.57-84.89,172.7-3.3,17.46-4.32,33.73-4.92,51.41-1.03,30.26,2.73,59.79,10.29,89.99Z"/>
    <path class="cls-1" d="M756.32,439.94l-11.9,1.54c20.64-80,13.19-154.91-20.73-229.35-17.76-38.98-42.64-73.09-73.22-102.71-11.72-11.35-22.88-21.66-36.31-30.86l-30.71-21.03c2.73-3.83,5.57-6.22,8.09-9.41l8.23-10.46c72.75,41.65,132.73,106.81,164.64,184.67,18.14,44.27,27.67,90.87,27.76,138.48.04,22.25-2.18,43.24-5.91,64.92-1.25,7.29-1.82,14.42-5.38,21.14-4.12-.93-7.48-1.74-11.46-.03-2.14-6.68-7.26-7.65-13.1-6.9Z"/>
  </g>
</svg>